<?xml version="1.0" encoding="utf-8"?>
<!-- Generator: Adobe Illustrator 16.0.0, SVG Export Plug-In . SVG Version: 6.00 Build 0)  -->
<!DOCTYPE svg PUBLIC "-//W3C//DTD SVG 1.1//EN" "http://www.w3.org/Graphics/SVG/1.1/DTD/svg11.dtd">
<svg version="1.1" id="Layer_1" xmlns="http://www.w3.org/2000/svg" xmlns:xlink="http://www.w3.org/1999/xlink" x="0px" y="0px"
	 width="90.842px" height="51.91px" viewBox="0 0 90.842 51.91" enable-background="new 0 0 90.842 51.91" xml:space="preserve">
<g>
	<defs>
		<rect id="SVGID_1_" width="90.842" height="51.91"/>
	</defs>
	<clipPath id="SVGID_2_">
		<use xlink:href="#SVGID_1_"  overflow="visible"/>
	</clipPath>
	
		<path clip-path="url(#SVGID_2_)" fill="none" stroke="#010101" stroke-linecap="round" stroke-linejoin="round" stroke-miterlimit="10" d="
		M3.102,5.589c0,0-1.597,10.361-0.726,16.261c0.871,5.9,1.307,9.209,0.726,12.808c-0.581,3.597-0.778,3.74,0.265,4.893
		c1.043,1.15,3.076,1.726,4.384,1.15c1.307-0.575,1.598-2.446,2.47-1.727c0.871,0.72,2.905,7.051,2.759,8.922
		s0.008,3.165,0.008,3.165s2.897-5.899,4.06-8.489c1.162-2.59,0.436-3.021,2.615-3.021s3.05,0.287,5.229,0.432
		c2.179,0.144,3.777-1.439,8.861-1.152c5.083,0.289,3.922-0.575,8.134,0.289c4.212,0.863,6.972-1.152,8.715-1.152
		c1.743,0,15.687-5.468,29.341-0.288c3.922,1.294,6.101,2.158,7.117,2.446c1.018,0.288,1.598,0,1.598-0.575
		c0-0.577-0.29-7.195,0-9.354c0.291-2.158,0-7.482,0-8.49s1.453-12.231,1.453-14.534c0-2.302,1.161-7.482-5.084-6.763
		C78.779,1.129,72.243,2.28,69.338,2.28s-2.614-0.432-5.956,0.576c-3.34,1.008-5.374,1.295-11.91,1.008
		c-6.537-0.288-4.648-0.432-10.023-0.288c-5.375,0.144-7.554-0.289-11.233,1.055c-3.68,1.343-10.458,0.816-14.913,1.056
		c-4.455,0.239-8.376,0.287-9.296,0.095C5.087,5.589,3.102,5.589,3.102,5.589z"/>
	
		<path clip-path="url(#SVGID_2_)" fill="none" stroke="#010101" stroke-width="0.25" stroke-linecap="round" stroke-linejoin="round" stroke-miterlimit="10" d="
		M4.891,3.274c0,0-4.74-0.653-4.74,1.521s0.146,10.87,0,11.595c-0.146,0.724,0,8.984,0,8.984s0.583,6.087,0.583,6.667
		c0,0.58-0.583,4.276,0.875,5.145c1.459,0.87,3.428,0.725,4.376,0.87c0.948,0.145,1.677,0,2.625,3.043
		c0.948,3.044,2.553,7.608,2.626,8.405c0.073,0.797,1.094,2.319,1.094,2.319s3.5-3.84,4.448-5.652
		c0.948-1.812,0.365-4.145,0.764-5.129c0.4-0.985,11.707-0.813,14.113-0.885c2.407-0.072,4.74-0.942,7.876,0
		c3.136,0.941,8.897,0.072,11.668,2.173c2.771,2.103,18.815,1.667,23.483,0.146c4.667-1.521,3.646-3.261,6.928-2.174
		s5.323,3.479,5.615,2.754c0.292-0.726-0.073-4.131,0-5.725s1.751-7.845,2.479-9.828c0.729-1.984,1.751-0.969,0.365-7.056
		s0.219-19.847-1.678-20.285c-1.896-0.439-21.586,1.953-28.369,1.01s-15.388,0.652-17.43,0.58
		c-2.042-0.073-7.366-0.362-12.689,0.435S14.006,3.854,10.87,3.346C7.735,2.839,4.891,3.274,4.891,3.274z"/>
</g>
</svg>
